<svg width="64" height="64" viewBox="0 0 64 64" fill="none" xmlns="http://www.w3.org/2000/svg">
<g clip-path="url(#clip0_1_2)">
<mask id="mask0_1_2" style="mask-type:alpha" maskUnits="userSpaceOnUse" x="15" y="1" width="35" height="63">
<mask id="path-1-outside-1_1_2" maskUnits="userSpaceOnUse" x="15" y="1" width="35" height="63" fill="black">
<rect fill="white" x="15" y="1" width="35" height="63"/>
<path d="M32.84 62.808C32.2 62.808 31.6667 62.5947 31.24 62.168C30.856 61.7413 30.664 61.2293 30.664 60.632V54.232L31.816 55.32C28.8293 55.2773 26.0987 54.872 23.624 54.104C21.1493 53.2933 19.0587 52.2693 17.352 51.032C16.8827 50.6907 16.5413 50.2853 16.328 49.816C16.1573 49.304 16.1147 48.8133 16.2 48.344C16.328 47.8747 16.5413 47.4693 16.84 47.128C17.1813 46.7867 17.5867 46.5947 18.056 46.552C18.5253 46.4667 19.0587 46.616 19.656 47C21.064 47.9813 22.7707 48.8347 24.776 49.56C26.7813 50.2853 29.2773 50.648 32.264 50.648C34.7387 50.648 36.7653 50.328 38.344 49.688C39.9227 49.048 41.096 48.152 41.864 47C42.632 45.848 43.016 44.504 43.016 42.968C43.016 41.7733 42.7387 40.728 42.184 39.832C41.6293 38.936 40.7547 38.168 39.56 37.528C38.3653 36.888 36.7653 36.3547 34.76 35.928L28.36 34.584C24.4773 33.7307 21.5973 32.344 19.72 30.424C17.8427 28.4613 16.904 25.9013 16.904 22.744C16.904 20.2693 17.5013 18.072 18.696 16.152C19.9333 14.1893 21.64 12.6533 23.816 11.544C25.992 10.392 28.5307 9.752 31.432 9.624L30.664 10.52V4.248C30.664 3.65066 30.856 3.13866 31.24 2.712C31.6667 2.28533 32.2 2.072 32.84 2.072C33.4373 2.072 33.9493 2.28533 34.376 2.712C34.8027 3.13866 35.016 3.65066 35.016 4.248V10.52L34.184 9.624C36.1893 9.66667 38.3013 10.0933 40.52 10.904C42.7813 11.7147 44.7013 12.8667 46.28 14.36C46.7067 14.744 46.9627 15.1707 47.048 15.64C47.176 16.0667 47.1547 16.4933 46.984 16.92C46.856 17.304 46.6213 17.6453 46.28 17.944C45.9813 18.2 45.576 18.3493 45.064 18.392C44.5947 18.392 44.0827 18.2 43.528 17.816C42.12 16.664 40.5413 15.7893 38.792 15.192C37.0853 14.552 35.016 14.232 32.584 14.232C29.384 14.232 26.824 15 24.904 16.536C23.0267 18.072 22.088 20.0987 22.088 22.616C22.088 24.5787 22.6853 26.1573 23.88 27.352C25.0747 28.504 27.016 29.3573 29.704 29.912L36.168 31.32C40.3493 32.216 43.4213 33.5813 45.384 35.416C47.3467 37.208 48.328 39.64 48.328 42.712C48.328 45.144 47.7093 47.2773 46.472 49.112C45.2347 50.904 43.5493 52.3333 41.416 53.4C39.2827 54.424 36.808 55.0427 33.992 55.256L35.016 54.168V60.632C35.016 61.2293 34.8027 61.7413 34.376 62.168C33.992 62.5947 33.48 62.808 32.84 62.808Z"/>
</mask>
<path d="M32.84 62.808C32.2 62.808 31.6667 62.5947 31.24 62.168C30.856 61.7413 30.664 61.2293 30.664 60.632V54.232L31.816 55.32C28.8293 55.2773 26.0987 54.872 23.624 54.104C21.1493 53.2933 19.0587 52.2693 17.352 51.032C16.8827 50.6907 16.5413 50.2853 16.328 49.816C16.1573 49.304 16.1147 48.8133 16.2 48.344C16.328 47.8747 16.5413 47.4693 16.84 47.128C17.1813 46.7867 17.5867 46.5947 18.056 46.552C18.5253 46.4667 19.0587 46.616 19.656 47C21.064 47.9813 22.7707 48.8347 24.776 49.56C26.7813 50.2853 29.2773 50.648 32.264 50.648C34.7387 50.648 36.7653 50.328 38.344 49.688C39.9227 49.048 41.096 48.152 41.864 47C42.632 45.848 43.016 44.504 43.016 42.968C43.016 41.7733 42.7387 40.728 42.184 39.832C41.6293 38.936 40.7547 38.168 39.56 37.528C38.3653 36.888 36.7653 36.3547 34.76 35.928L28.36 34.584C24.4773 33.7307 21.5973 32.344 19.72 30.424C17.8427 28.4613 16.904 25.9013 16.904 22.744C16.904 20.2693 17.5013 18.072 18.696 16.152C19.9333 14.1893 21.64 12.6533 23.816 11.544C25.992 10.392 28.5307 9.752 31.432 9.624L30.664 10.52V4.248C30.664 3.65066 30.856 3.13866 31.24 2.712C31.6667 2.28533 32.2 2.072 32.84 2.072C33.4373 2.072 33.9493 2.28533 34.376 2.712C34.8027 3.13866 35.016 3.65066 35.016 4.248V10.52L34.184 9.624C36.1893 9.66667 38.3013 10.0933 40.52 10.904C42.7813 11.7147 44.7013 12.8667 46.28 14.36C46.7067 14.744 46.9627 15.1707 47.048 15.64C47.176 16.0667 47.1547 16.4933 46.984 16.92C46.856 17.304 46.6213 17.6453 46.28 17.944C45.9813 18.2 45.576 18.3493 45.064 18.392C44.5947 18.392 44.0827 18.2 43.528 17.816C42.12 16.664 40.5413 15.7893 38.792 15.192C37.0853 14.552 35.016 14.232 32.584 14.232C29.384 14.232 26.824 15 24.904 16.536C23.0267 18.072 22.088 20.0987 22.088 22.616C22.088 24.5787 22.6853 26.1573 23.88 27.352C25.0747 28.504 27.016 29.3573 29.704 29.912L36.168 31.32C40.3493 32.216 43.4213 33.5813 45.384 35.416C47.3467 37.208 48.328 39.64 48.328 42.712C48.328 45.144 47.7093 47.2773 46.472 49.112C45.2347 50.904 43.5493 52.3333 41.416 53.4C39.2827 54.424 36.808 55.0427 33.992 55.256L35.016 54.168V60.632C35.016 61.2293 34.8027 61.7413 34.376 62.168C33.992 62.5947 33.48 62.808 32.84 62.808Z" fill="#52ED33"/>
<path d="M31.24 62.168L30.4967 62.837L30.5143 62.8565L30.5329 62.8751L31.24 62.168ZM30.664 54.232L31.3506 53.505L29.664 51.9121V54.232H30.664ZM31.816 55.32L31.8017 56.3199L34.37 56.3566L32.5026 54.593L31.816 55.32ZM23.624 54.104L23.3127 55.0543L23.3201 55.0567L23.3276 55.0591L23.624 54.104ZM17.352 51.032L16.7638 51.8407L16.765 51.8416L17.352 51.032ZM16.328 49.816L15.3793 50.1322L15.3959 50.182L15.4176 50.2298L16.328 49.816ZM16.2 48.344L15.2352 48.0809L15.2239 48.1226L15.2161 48.1651L16.2 48.344ZM16.84 47.128L16.1329 46.4209L16.1093 46.4444L16.0874 46.4695L16.84 47.128ZM18.056 46.552L18.1465 47.5479L18.191 47.5439L18.2349 47.5359L18.056 46.552ZM19.656 47L20.2278 46.1796L20.2125 46.1689L20.1968 46.1588L19.656 47ZM24.776 49.56L24.4359 50.5004L24.4359 50.5004L24.776 49.56ZM41.864 47L42.6961 47.5547L42.6961 47.5547L41.864 47ZM42.184 39.832L43.0343 39.3056L43.0343 39.3056L42.184 39.832ZM39.56 37.528L39.0878 38.4095L39.0878 38.4095L39.56 37.528ZM34.76 35.928L34.9681 34.9499L34.9655 34.9493L34.76 35.928ZM28.36 34.584L28.1453 35.5607L28.1545 35.5627L28.36 34.584ZM19.72 30.424L18.9973 31.1153L19.005 31.1231L19.72 30.424ZM18.696 16.152L17.8501 15.6187L17.8469 15.6237L18.696 16.152ZM23.816 11.544L24.2702 12.4349L24.2771 12.4314L24.2839 12.4278L23.816 11.544ZM31.432 9.624L32.1913 10.2748L33.6925 8.52329L31.3879 8.62497L31.432 9.624ZM30.664 10.52H29.664V13.2233L31.4233 11.1708L30.664 10.52ZM31.24 2.712L30.5329 2.00489L30.5143 2.02349L30.4967 2.04303L31.24 2.712ZM34.376 2.712L35.0831 2.00489L35.0831 2.00489L34.376 2.712ZM35.016 10.52L34.2832 11.2004L36.016 13.0665V10.52H35.016ZM34.184 9.624L34.2053 8.62422L31.8444 8.57399L33.4512 10.3044L34.184 9.624ZM40.52 10.904L40.1768 11.8433L40.1825 11.8453L40.52 10.904ZM46.28 14.36L45.5928 15.0865L45.6018 15.095L45.611 15.1033L46.28 14.36ZM47.048 15.64L46.0641 15.8189L46.0741 15.8738L46.0902 15.9273L47.048 15.64ZM46.984 16.92L46.0555 16.5486L46.0446 16.5759L46.0353 16.6038L46.984 16.92ZM46.28 17.944L46.9308 18.7033L46.9385 18.6966L46.28 17.944ZM45.064 18.392V19.392H45.1056L45.147 19.3885L45.064 18.392ZM43.528 17.816L42.8948 18.59L42.9258 18.6154L42.9588 18.6382L43.528 17.816ZM38.792 15.192L38.4409 16.1283L38.4548 16.1335L38.4689 16.1383L38.792 15.192ZM24.904 16.536L24.2793 15.7551L24.2708 15.762L24.904 16.536ZM23.88 27.352L23.1729 28.0591L23.1793 28.0655L23.1859 28.0718L23.88 27.352ZM29.704 29.912L29.9168 28.9349L29.9061 28.9326L29.704 29.912ZM36.168 31.32L35.9552 32.2971L35.9585 32.2978L36.168 31.32ZM45.384 35.416L44.7011 36.1466L44.7097 36.1545L45.384 35.416ZM46.472 49.112L47.2949 49.6802L47.3011 49.6711L46.472 49.112ZM41.416 53.4L41.8487 54.3015L41.856 54.298L41.8632 54.2944L41.416 53.4ZM33.992 55.256L33.2638 54.5706L31.497 56.4479L34.0675 56.2531L33.992 55.256ZM35.016 54.168H36.016V51.6464L34.2878 53.4826L35.016 54.168ZM34.376 62.168L33.6689 61.4609L33.6503 61.4795L33.6327 61.499L34.376 62.168ZM32.84 62.808V61.808C32.4474 61.808 32.174 61.6878 31.9471 61.4609L31.24 62.168L30.5329 62.8751C31.1594 63.5016 31.9526 63.808 32.84 63.808V62.808ZM31.24 62.168L31.9833 61.499C31.7718 61.264 31.664 60.9933 31.664 60.632H30.664H29.664C29.664 61.4654 29.9402 62.2186 30.4967 62.837L31.24 62.168ZM30.664 60.632H31.664V54.232H30.664H29.664V60.632H30.664ZM30.664 54.232L29.9774 54.959L31.1294 56.047L31.816 55.32L32.5026 54.593L31.3506 53.505L30.664 54.232ZM31.816 55.32L31.8303 54.3201C28.925 54.2786 26.2909 53.8846 23.9204 53.1489L23.624 54.104L23.3276 55.0591C25.9064 55.8594 28.7336 56.2761 31.8017 56.3199L31.816 55.32ZM23.624 54.104L23.9353 53.1537C21.537 52.368 19.5445 51.3864 17.939 50.2224L17.352 51.032L16.765 51.8416C18.5728 53.1522 20.7617 54.2186 23.3127 55.0543L23.624 54.104ZM17.352 51.032L17.9402 50.2233C17.5927 49.9705 17.3716 49.6953 17.2384 49.4022L16.328 49.816L15.4176 50.2298C15.7111 50.8754 16.1727 51.4108 16.7638 51.8407L17.352 51.032ZM16.328 49.816L17.2767 49.4998C17.1521 49.126 17.1324 48.8061 17.1839 48.5229L16.2 48.344L15.2161 48.1651C15.097 48.8205 15.1626 49.482 15.3793 50.1322L16.328 49.816ZM16.2 48.344L17.1648 48.6071C17.2559 48.2731 17.4008 48.0057 17.5926 47.7865L16.84 47.128L16.0874 46.4695C15.6819 46.933 15.4001 47.4762 15.2352 48.0809L16.2 48.344ZM16.84 47.128L17.5471 47.8351C17.7274 47.6548 17.9163 47.5688 18.1465 47.5479L18.056 46.552L17.9655 45.5561C17.2571 45.6205 16.6353 45.9185 16.1329 46.4209L16.84 47.128ZM18.056 46.552L18.2349 47.5359C18.3567 47.5137 18.6289 47.5285 19.1152 47.8412L19.656 47L20.1968 46.1588C19.4885 45.7035 18.6939 45.4196 17.8771 45.5681L18.056 46.552ZM19.656 47L19.0842 47.8204C20.5787 48.862 22.3674 49.7522 24.4359 50.5004L24.776 49.56L25.1161 48.6196C23.174 47.9171 21.5493 47.1006 20.2278 46.1796L19.656 47ZM24.776 49.56L24.4359 50.5004C26.5844 51.2775 29.2042 51.648 32.264 51.648V50.648V49.648C29.3504 49.648 26.9783 49.2932 25.1161 48.6196L24.776 49.56ZM32.264 50.648V51.648C34.8141 51.648 36.9806 51.3198 38.7197 50.6147L38.344 49.688L37.9683 48.7613C36.5501 49.3362 34.6633 49.648 32.264 49.648V50.648ZM38.344 49.688L38.7197 50.6147C40.4411 49.9169 41.7934 48.9087 42.6961 47.5547L41.864 47L41.032 46.4453C40.3986 47.3953 39.4042 48.1791 37.9683 48.7613L38.344 49.688ZM41.864 47L42.6961 47.5547C43.5854 46.2207 44.016 44.679 44.016 42.968H43.016H42.016C42.016 44.329 41.6786 45.4753 41.032 46.4453L41.864 47ZM43.016 42.968H44.016C44.016 41.6129 43.6994 40.3801 43.0343 39.3056L42.184 39.832L41.3337 40.3584C41.7779 41.0759 42.016 41.9338 42.016 42.968H43.016ZM42.184 39.832L43.0343 39.3056C42.3641 38.2231 41.3385 37.3463 40.0322 36.6465L39.56 37.528L39.0878 38.4095C40.1708 38.9897 40.8945 39.6489 41.3337 40.3584L42.184 39.832ZM39.56 37.528L40.0322 36.6465C38.7236 35.9455 37.0235 35.3872 34.9681 34.9499L34.76 35.928L34.5519 36.9061C36.5071 37.3221 38.007 37.8305 39.0878 38.4095L39.56 37.528ZM34.76 35.928L34.9655 34.9493L28.5655 33.6053L28.36 34.584L28.1545 35.5627L34.5545 36.9067L34.76 35.928ZM28.36 34.584L28.5747 33.6073C24.7962 32.7769 22.1254 31.4537 20.435 29.7249L19.72 30.424L19.005 31.1231C21.0692 33.2343 24.1585 34.6845 28.1453 35.5607L28.36 34.584ZM19.72 30.424L20.4426 29.7328C18.7721 27.9863 17.904 25.6887 17.904 22.744H16.904H15.904C15.904 26.1139 16.9132 28.9363 18.9974 31.1152L19.72 30.424ZM16.904 22.744H17.904C17.904 20.4378 18.4583 18.4269 19.5451 16.6803L18.696 16.152L17.8469 15.6237C16.5444 17.7171 15.904 20.1008 15.904 22.744H16.904ZM18.696 16.152L19.5419 16.6853C20.6781 14.8831 22.2458 13.467 24.2702 12.4349L23.816 11.544L23.3618 10.6531C21.0342 11.8397 19.1886 13.4956 17.8501 15.6187L18.696 16.152ZM23.816 11.544L24.2839 12.4278C26.3074 11.3565 28.6965 10.7457 31.4761 10.623L31.432 9.624L31.3879 8.62497C28.3649 8.75834 25.6766 9.4275 23.3481 10.6602L23.816 11.544ZM31.432 9.624L30.6727 8.97321L29.9047 9.86921L30.664 10.52L31.4233 11.1708L32.1913 10.2748L31.432 9.624ZM30.664 10.52H31.664V4.248H30.664H29.664V10.52H30.664ZM30.664 4.248H31.664C31.664 3.88669 31.7718 3.61598 31.9833 3.38096L31.24 2.712L30.4967 2.04303C29.9402 2.66135 29.664 3.41464 29.664 4.248H30.664ZM31.24 2.712L31.9471 3.4191C32.174 3.19223 32.4474 3.072 32.84 3.072V2.072V1.072C31.9526 1.072 31.1594 1.37843 30.5329 2.00489L31.24 2.712ZM32.84 2.072V3.072C33.1691 3.072 33.4276 3.17783 33.6689 3.41911L34.376 2.712L35.0831 2.00489C34.471 1.39283 33.7056 1.072 32.84 1.072V2.072ZM34.376 2.712L33.6689 3.4191C33.9102 3.66037 34.016 3.91889 34.016 4.248H35.016H36.016C36.016 3.38244 35.6952 2.61695 35.0831 2.00489L34.376 2.712ZM35.016 4.248H34.016V10.52H35.016H36.016V4.248H35.016ZM35.016 10.52L35.7488 9.83955L34.9168 8.94355L34.184 9.624L33.4512 10.3044L34.2832 11.2004L35.016 10.52ZM34.184 9.624L34.1627 10.6238C36.0406 10.6637 38.0435 11.0638 40.1768 11.8433L40.52 10.904L40.8632 9.96473C38.5592 9.12288 36.3381 8.6696 34.2053 8.62422L34.184 9.624ZM40.52 10.904L40.1825 11.8453C42.3275 12.6143 44.1247 13.6978 45.5928 15.0865L46.28 14.36L46.9672 13.6335C45.2779 12.0356 43.2352 10.815 40.8575 9.96266L40.52 10.904ZM46.28 14.36L45.611 15.1033C45.9077 15.3703 46.026 15.609 46.0641 15.8189L47.048 15.64L48.0319 15.4611C47.8994 14.7323 47.5057 14.1177 46.949 13.6167L46.28 14.36ZM47.048 15.64L46.0902 15.9273C46.151 16.1301 46.1451 16.3247 46.0555 16.5486L46.984 16.92L47.9125 17.2914C48.1643 16.662 48.201 16.0032 48.0058 15.3526L47.048 15.64ZM46.984 16.92L46.0353 16.6038C45.9701 16.7995 45.8455 16.9954 45.6215 17.1914L46.28 17.944L46.9385 18.6966C47.3971 18.2953 47.7419 17.8085 47.9327 17.2362L46.984 16.92ZM46.28 17.944L45.6292 17.1847C45.5327 17.2674 45.3473 17.3649 44.981 17.3955L45.064 18.392L45.147 19.3885C45.8047 19.3337 46.4299 19.1326 46.9308 18.7033L46.28 17.944ZM45.064 18.392V17.392C44.8692 17.392 44.5547 17.3105 44.0972 16.9938L43.528 17.816L42.9588 18.6382C43.6107 19.0895 44.3201 19.392 45.064 19.392V18.392ZM43.528 17.816L44.1612 17.042C42.6595 15.8133 40.9754 14.8809 39.1151 14.2456L38.792 15.192L38.4689 16.1383C40.1072 16.6978 41.5805 17.5147 42.8948 18.59L43.528 17.816ZM38.792 15.192L39.1431 14.2557C37.2936 13.5621 35.0982 13.232 32.584 13.232V14.232V15.232C34.9338 15.232 36.8771 15.5419 38.4409 16.1283L38.792 15.192ZM32.584 14.232V13.232C29.226 13.232 26.4239 14.0394 24.2793 15.7551L24.904 16.536L25.5287 17.3169C27.2241 15.9606 29.542 15.232 32.584 15.232V14.232ZM24.904 16.536L24.2708 15.762C22.1513 17.4961 21.088 19.8118 21.088 22.616H22.088H23.088C23.088 20.3855 23.902 18.6479 25.5372 17.31L24.904 16.536ZM22.088 22.616H21.088C21.088 24.7975 21.7603 26.6465 23.1729 28.0591L23.88 27.352L24.5871 26.6449C23.6104 25.6682 23.088 24.3598 23.088 22.616H22.088ZM23.88 27.352L23.1859 28.0718C24.5791 29.4153 26.7373 30.3209 29.5019 30.8914L29.704 29.912L29.9061 28.9326C27.2947 28.3938 25.5703 27.5927 24.5741 26.6322L23.88 27.352ZM29.704 29.912L29.4912 30.8891L35.9552 32.2971L36.168 31.32L36.3808 30.3429L29.9168 28.9349L29.704 29.912ZM36.168 31.32L35.9585 32.2978C40.0577 33.1762 42.9274 34.4885 44.7011 36.1465L45.384 35.416L46.0669 34.6855C43.9152 32.6741 40.641 31.2558 36.3775 30.3422L36.168 31.32ZM45.384 35.416L44.7097 36.1545C46.4318 37.7268 47.328 39.8729 47.328 42.712H48.328H49.328C49.328 39.4071 48.2615 36.6892 46.0583 34.6775L45.384 35.416ZM48.328 42.712H47.328C47.328 44.9653 46.7579 46.8997 45.6429 48.5529L46.472 49.112L47.3011 49.6711C48.6608 47.655 49.328 45.3227 49.328 42.712H48.328ZM46.472 49.112L45.6491 48.5438C44.5164 50.1842 42.9661 51.5069 40.9688 52.5056L41.416 53.4L41.8632 54.2944C44.1326 53.1598 45.9529 51.6238 47.2949 49.6802L46.472 49.112ZM41.416 53.4L40.9833 52.4985C38.9814 53.4594 36.6319 54.0531 33.9165 54.2589L33.992 55.256L34.0675 56.2531C36.9841 56.0322 39.5839 55.3886 41.8487 54.3015L41.416 53.4ZM33.992 55.256L34.7202 55.9414L35.7442 54.8534L35.016 54.168L34.2878 53.4826L33.2638 54.5706L33.992 55.256ZM35.016 54.168H34.016V60.632H35.016H36.016V54.168H35.016ZM35.016 60.632H34.016C34.016 60.9611 33.9102 61.2196 33.6689 61.4609L34.376 62.168L35.0831 62.8751C35.6952 62.263 36.016 61.4976 36.016 60.632H35.016ZM34.376 62.168L33.6327 61.499C33.4613 61.6895 33.2328 61.808 32.84 61.808V62.808V63.808C33.7272 63.808 34.5227 63.4999 35.1193 62.837L34.376 62.168Z" fill="black" mask="url(#path-1-outside-1_1_2)"/>
</mask>
<g mask="url(#mask0_1_2)">
<rect width="64" height="64" fill="white"/>
<rect y="32" width="32" height="32" fill="#2444B7"/>
<rect x="32" width="32" height="32" fill="#CC2E31"/>
<path d="M17.5245 11.4635C17.6741 11.0029 18.3259 11.0029 18.4755 11.4635L19.6839 15.1824C19.7508 15.3884 19.9428 15.5279 20.1594 15.5279H24.0696C24.554 15.5279 24.7554 16.1477 24.3635 16.4324L21.2001 18.7307C21.0248 18.8581 20.9515 19.0838 21.0184 19.2898L22.2268 23.0086C22.3764 23.4693 21.8492 23.8523 21.4573 23.5676L18.2939 21.2693C18.1186 21.1419 17.8814 21.1419 17.7061 21.2693L14.5427 23.5676C14.1508 23.8523 13.6236 23.4693 13.7732 23.0086L14.9816 19.2898C15.0485 19.0838 14.9752 18.8581 14.7999 18.7307L11.6365 16.4324C11.2446 16.1477 11.446 15.5279 11.9304 15.5279H15.8406C16.0572 15.5279 16.2492 15.3884 16.3161 15.1824L17.5245 11.4635Z" fill="#2444B7"/>
<path d="M45.5245 39.4635C45.6741 39.0029 46.3259 39.0029 46.4755 39.4635L47.6839 43.1824C47.7508 43.3884 47.9428 43.5279 48.1594 43.5279H52.0696C52.554 43.5279 52.7554 44.1477 52.3635 44.4324L49.2001 46.7307C49.0248 46.8581 48.9515 47.0838 49.0184 47.2898L50.2268 51.0086C50.3764 51.4693 49.8492 51.8523 49.4573 51.5676L46.2939 49.2693C46.1186 49.1419 45.8814 49.1419 45.7061 49.2693L42.5427 51.5676C42.1508 51.8523 41.6236 51.4693 41.7732 51.0086L42.9816 47.2898C43.0485 47.0838 42.9752 46.8581 42.7999 46.7307L39.6365 44.4324C39.2446 44.1477 39.446 43.5279 39.9304 43.5279H43.8406C44.0572 43.5279 44.2492 43.3884 44.3161 43.1824L45.5245 39.4635Z" fill="#CB2E30"/>
</g>
</g>
<defs>
<clipPath id="clip0_1_2">
<rect width="64" height="64" fill="white"/>
</clipPath>
</defs>
</svg>
